# xmcd
#
# Track frame offsets: 
#        150
#        13981
#        34040
#        51164
#        67050
#        81008
#        101921
#        119329
#        144109
#        164011
#        192739
#        209461
#        223972
#        236940
#
# Disc length: 3527 seconds
#
# Revision: 0
# Processed by: cddbd v1.5.2PL0 Copyright (c) Steve Scherf et al.
# Submitted via: ExactAudioCopy v1.2
#
DISCID=df0dc50e
DTITLE=Charlie Landsborough - Here, There and Everywhere
DYEAR=2014
DGENRE=Country
TTITLE0=Here, There And Everywhere
TTITLE1=[Beatles Medley] I Will, Ticket To Ride
TTITLE2=She's Leaving Home
TTITLE3=Crippled Inside
TTITLE4=In My Life
TTITLE5=Come Together
TTITLE6=And I Love Her
TTITLE7=Jealous Guy
TTITLE8=Imagine [2014 Version]
TTITLE9=[Beatles Medley] For No One, Here Comes The Sun, Things We Sai
TTITLE9=d Today
TTITLE10=The Long And Winding Road
TTITLE11=Penny Lane
TTITLE12=Yesterday
TTITLE13=[Beatles Medley] I Feel Fine, Love Me Do, From Me To You, Let
TTITLE13=It Be [Live]
EXTD=
EXTT0=
EXTT1=
EXTT2=
EXTT3=
EXTT4=
EXTT5=
EXTT6=
EXTT7=
EXTT8=
EXTT9=
EXTT10=
EXTT11=
EXTT12=
EXTT13=
PLAYORDER=
